<mxfile host="app.diagrams.net" agent="Mozilla/5.0 (X11; Linux x86_64; rv:131.0) Gecko/20100101 Firefox/131.0" version="24.7.17">
  <diagram name="Page-1" id="R-d1fh87zOc-NFKboOmQ">
    <mxGraphModel dx="2163" dy="1599" grid="1" gridSize="10" guides="0" tooltips="1" connect="1" arrows="1" fold="1" page="0" pageScale="1" pageWidth="850" pageHeight="1100" math="0" shadow="0">
      <root>
        <mxCell id="0" />
        <mxCell id="1" parent="0" />
        <mxCell id="SVPrrkfXlxwS3d5fpkM8-1" value="&lt;b&gt;game&lt;/b&gt;" style="html=1;dropTarget=0;whiteSpace=wrap;fillColor=none;fontFamily=Source Sans Pro;verticalAlign=top;fillStyle=hatch;sketch=1;curveFitting=1;jiggle=2;" parent="1" vertex="1">
          <mxGeometry x="1160" y="80" width="1040" height="1400" as="geometry" />
        </mxCell>
        <mxCell id="SVPrrkfXlxwS3d5fpkM8-55" value="" style="shape=umlActor;verticalLabelPosition=bottom;verticalAlign=top;html=1;outlineConnect=0;fontFamily=Source Sans Pro;sketch=1;curveFitting=1;jiggle=2;" parent="1" vertex="1">
          <mxGeometry x="960" y="760" width="40" height="80" as="geometry" />
        </mxCell>
        <mxCell id="SVPrrkfXlxwS3d5fpkM8-56" value="play levels" style="ellipse;whiteSpace=wrap;fillColor=#d5e8d4;fontFamily=Source Code Pro;html=1;strokeColor=#82b366;sketch=1;curveFitting=1;jiggle=2;" parent="1" vertex="1">
          <mxGeometry x="1440" y="440" width="160" height="80" as="geometry" />
        </mxCell>
        <mxCell id="SVPrrkfXlxwS3d5fpkM8-57" value="&lt;div&gt;play pre-made&lt;/div&gt;&lt;div&gt;levels&lt;/div&gt;" style="ellipse;whiteSpace=wrap;fillColor=#ffe6cc;fontFamily=Source Code Pro;html=1;strokeColor=#d79b00;sketch=1;curveFitting=1;jiggle=2;" parent="1" vertex="1">
          <mxGeometry x="1240" y="320" width="160" height="80" as="geometry" />
        </mxCell>
        <mxCell id="SVPrrkfXlxwS3d5fpkM8-58" value="choose level" style="ellipse;whiteSpace=wrap;fillColor=#e1d5e7;fontFamily=Source Code Pro;html=1;strokeColor=#9673a6;sketch=1;curveFitting=1;jiggle=2;" parent="1" vertex="1">
          <mxGeometry x="1240" y="160" width="160" height="80" as="geometry" />
        </mxCell>
        <mxCell id="SVPrrkfXlxwS3d5fpkM8-59" value="&lt;div&gt;play infinite&lt;/div&gt;&lt;div&gt;levels mode&lt;/div&gt;" style="ellipse;whiteSpace=wrap;fillColor=#ffe6cc;fontFamily=Source Code Pro;html=1;strokeColor=#d79b00;sketch=1;curveFitting=1;jiggle=2;" parent="1" vertex="1">
          <mxGeometry x="1240" y="560" width="160" height="80" as="geometry" />
        </mxCell>
        <mxCell id="SVPrrkfXlxwS3d5fpkM8-60" value="&lt;div&gt;complete level&lt;/div&gt;&lt;div&gt;objective&lt;br&gt;&lt;/div&gt;" style="ellipse;whiteSpace=wrap;fillColor=#dae8fc;fontFamily=Source Code Pro;html=1;strokeColor=#6c8ebf;sketch=1;curveFitting=1;jiggle=2;" parent="1" vertex="1">
          <mxGeometry x="1720" y="440" width="160" height="80" as="geometry" />
        </mxCell>
        <mxCell id="SVPrrkfXlxwS3d5fpkM8-66" value="" style="endArrow=none;html=1;endSize=12;startArrow=openThin;startSize=12;startFill=0;edgeStyle=orthogonalEdgeStyle;align=center;verticalAlign=middle;rounded=0;endFill=0;fontFamily=Source Code Pro;fontSize=8;labelBackgroundColor=none;fontStyle=1;dashed=1;flowAnimation=0;sketch=1;curveFitting=1;jiggle=2;" parent="1" source="SVPrrkfXlxwS3d5fpkM8-58" target="SVPrrkfXlxwS3d5fpkM8-57" edge="1">
          <mxGeometry x="0.95" relative="1" as="geometry">
            <mxPoint x="1370" y="450" as="sourcePoint" />
            <mxPoint x="1490" y="370" as="targetPoint" />
            <mxPoint as="offset" />
            <Array as="points" />
          </mxGeometry>
        </mxCell>
        <mxCell id="SVPrrkfXlxwS3d5fpkM8-67" value="&amp;lt;&amp;lt;include&amp;gt;&amp;gt;" style="text;html=1;align=center;verticalAlign=middle;whiteSpace=wrap;rounded=0;fontSize=8;fontStyle=1;fontFamily=Source Code Pro;fillColor=default;sketch=1;curveFitting=1;jiggle=2;" parent="1" vertex="1">
          <mxGeometry x="1290" y="270" width="60" height="20" as="geometry" />
        </mxCell>
        <mxCell id="SVPrrkfXlxwS3d5fpkM8-68" value="" style="endArrow=blockThin;html=1;endSize=12;startArrow=none;startSize=12;startFill=0;edgeStyle=orthogonalEdgeStyle;align=center;verticalAlign=middle;rounded=0;endFill=0;fontFamily=Source Code Pro;fontSize=8;labelBackgroundColor=none;fontStyle=1;sketch=1;curveFitting=1;jiggle=2;" parent="1" source="SVPrrkfXlxwS3d5fpkM8-57" target="SVPrrkfXlxwS3d5fpkM8-56" edge="1">
          <mxGeometry x="0.95" relative="1" as="geometry">
            <mxPoint x="1370" y="410" as="sourcePoint" />
            <mxPoint x="1370" y="280" as="targetPoint" />
            <mxPoint as="offset" />
            <Array as="points" />
          </mxGeometry>
        </mxCell>
        <mxCell id="SVPrrkfXlxwS3d5fpkM8-69" value="" style="endArrow=blockThin;html=1;endSize=12;startArrow=none;startSize=12;startFill=0;edgeStyle=orthogonalEdgeStyle;align=center;verticalAlign=middle;rounded=0;endFill=0;fontFamily=Source Code Pro;fontSize=8;labelBackgroundColor=none;fontStyle=1;sketch=1;curveFitting=1;jiggle=2;" parent="1" source="SVPrrkfXlxwS3d5fpkM8-59" target="SVPrrkfXlxwS3d5fpkM8-56" edge="1">
          <mxGeometry x="0.95" relative="1" as="geometry">
            <mxPoint x="1490" y="370" as="sourcePoint" />
            <mxPoint x="1370" y="450" as="targetPoint" />
            <mxPoint as="offset" />
            <Array as="points" />
          </mxGeometry>
        </mxCell>
        <mxCell id="SVPrrkfXlxwS3d5fpkM8-71" value="&lt;div&gt;return to&lt;/div&gt;&lt;div&gt;main menu&lt;/div&gt;" style="ellipse;whiteSpace=wrap;fillColor=#e1d5e7;fontFamily=Source Code Pro;html=1;strokeColor=#9673a6;sketch=1;curveFitting=1;jiggle=2;" parent="1" vertex="1">
          <mxGeometry x="1920" y="320" width="160" height="80" as="geometry" />
        </mxCell>
        <mxCell id="SVPrrkfXlxwS3d5fpkM8-72" value="&lt;div&gt;advance to the&lt;/div&gt;&lt;div&gt;next level&lt;/div&gt;" style="ellipse;whiteSpace=wrap;fillColor=#e1d5e7;fontFamily=Source Code Pro;html=1;strokeColor=#9673a6;sketch=1;curveFitting=1;jiggle=2;" parent="1" vertex="1">
          <mxGeometry x="1920" y="560" width="160" height="80" as="geometry" />
        </mxCell>
        <mxCell id="SVPrrkfXlxwS3d5fpkM8-73" value="" style="endArrow=none;html=1;endSize=12;startArrow=openThin;startSize=12;startFill=0;edgeStyle=orthogonalEdgeStyle;align=center;verticalAlign=middle;rounded=0;endFill=0;fontFamily=Source Code Pro;fontSize=8;labelBackgroundColor=none;fontStyle=1;dashed=1;flowAnimation=0;sketch=1;curveFitting=1;jiggle=2;" parent="1" source="SVPrrkfXlxwS3d5fpkM8-60" target="SVPrrkfXlxwS3d5fpkM8-71" edge="1">
          <mxGeometry x="0.95" relative="1" as="geometry">
            <mxPoint x="1860" y="290" as="sourcePoint" />
            <mxPoint x="1860" y="370" as="targetPoint" />
            <mxPoint as="offset" />
            <Array as="points">
              <mxPoint x="1800" y="360" />
            </Array>
          </mxGeometry>
        </mxCell>
        <mxCell id="SVPrrkfXlxwS3d5fpkM8-74" value="" style="endArrow=none;html=1;endSize=12;startArrow=openThin;startSize=12;startFill=0;edgeStyle=orthogonalEdgeStyle;align=center;verticalAlign=middle;rounded=0;endFill=0;fontFamily=Source Code Pro;fontSize=8;labelBackgroundColor=none;fontStyle=1;dashed=1;flowAnimation=0;sketch=1;curveFitting=1;jiggle=2;" parent="1" source="SVPrrkfXlxwS3d5fpkM8-60" target="SVPrrkfXlxwS3d5fpkM8-72" edge="1">
          <mxGeometry x="0.95" relative="1" as="geometry">
            <mxPoint x="1810" y="450" as="sourcePoint" />
            <mxPoint x="1870" y="600" as="targetPoint" />
            <mxPoint as="offset" />
            <Array as="points">
              <mxPoint x="1800" y="600" />
            </Array>
          </mxGeometry>
        </mxCell>
        <mxCell id="SVPrrkfXlxwS3d5fpkM8-75" value="&amp;lt;&amp;lt;extend&amp;gt;&amp;gt;" style="text;html=1;align=center;verticalAlign=middle;whiteSpace=wrap;rounded=0;fontSize=8;fontStyle=1;fontFamily=Source Code Pro;fillColor=default;sketch=1;curveFitting=1;jiggle=2;" parent="1" vertex="1">
          <mxGeometry x="1830" y="350" width="60" height="20" as="geometry" />
        </mxCell>
        <mxCell id="SVPrrkfXlxwS3d5fpkM8-76" value="&amp;lt;&amp;lt;extend&amp;gt;&amp;gt;" style="text;html=1;align=center;verticalAlign=middle;whiteSpace=wrap;rounded=0;fontSize=8;fontStyle=1;fontFamily=Source Code Pro;fillColor=default;sketch=1;curveFitting=1;jiggle=2;" parent="1" vertex="1">
          <mxGeometry x="1830" y="590" width="60" height="20" as="geometry" />
        </mxCell>
        <mxCell id="SVPrrkfXlxwS3d5fpkM8-77" value="create level" style="ellipse;whiteSpace=wrap;fillColor=#ffe6cc;fontFamily=Source Code Pro;html=1;strokeColor=#d79b00;sketch=1;curveFitting=1;jiggle=2;" parent="1" vertex="1">
          <mxGeometry x="1240" y="960" width="160" height="80" as="geometry" />
        </mxCell>
        <mxCell id="SVPrrkfXlxwS3d5fpkM8-79" value="add objects" style="ellipse;whiteSpace=wrap;fillColor=#e1d5e7;fontFamily=Source Code Pro;html=1;strokeColor=#9673a6;sketch=1;curveFitting=1;jiggle=2;" parent="1" vertex="1">
          <mxGeometry x="1520" y="960" width="160" height="80" as="geometry" />
        </mxCell>
        <mxCell id="SVPrrkfXlxwS3d5fpkM8-80" value="set objectives" style="ellipse;whiteSpace=wrap;fillColor=#e1d5e7;fontFamily=Source Code Pro;html=1;strokeColor=#9673a6;sketch=1;curveFitting=1;jiggle=2;" parent="1" vertex="1">
          <mxGeometry x="1520" y="760" width="160" height="80" as="geometry" />
        </mxCell>
        <mxCell id="SVPrrkfXlxwS3d5fpkM8-81" value="add enemies" style="ellipse;whiteSpace=wrap;fillColor=#f8cecc;fontFamily=Source Code Pro;html=1;strokeColor=#b85450;sketch=1;curveFitting=1;jiggle=2;" parent="1" vertex="1">
          <mxGeometry x="1720" y="840" width="160" height="80" as="geometry" />
        </mxCell>
        <mxCell id="SVPrrkfXlxwS3d5fpkM8-82" value="add walls" style="ellipse;whiteSpace=wrap;fillColor=#f8cecc;fontFamily=Source Code Pro;html=1;strokeColor=#b85450;sketch=1;curveFitting=1;jiggle=2;" parent="1" vertex="1">
          <mxGeometry x="1960" y="840" width="160" height="80" as="geometry" />
        </mxCell>
        <mxCell id="SVPrrkfXlxwS3d5fpkM8-83" value="add player" style="ellipse;whiteSpace=wrap;fillColor=#f8cecc;fontFamily=Source Code Pro;html=1;strokeColor=#b85450;sketch=1;curveFitting=1;jiggle=2;" parent="1" vertex="1">
          <mxGeometry x="1720" y="1080" width="160" height="80" as="geometry" />
        </mxCell>
        <mxCell id="SVPrrkfXlxwS3d5fpkM8-84" value="&lt;div&gt;add collectibles&lt;/div&gt;" style="ellipse;whiteSpace=wrap;fillColor=#f8cecc;fontFamily=Source Code Pro;html=1;strokeColor=#b85450;sketch=1;curveFitting=1;jiggle=2;" parent="1" vertex="1">
          <mxGeometry x="1960" y="1080" width="160" height="80" as="geometry" />
        </mxCell>
        <mxCell id="SVPrrkfXlxwS3d5fpkM8-85" value="" style="endArrow=blockThin;html=1;endSize=12;startArrow=none;startSize=12;startFill=0;edgeStyle=orthogonalEdgeStyle;align=center;verticalAlign=middle;rounded=0;endFill=0;fontFamily=Source Code Pro;fontSize=8;labelBackgroundColor=none;fontStyle=1;sketch=1;curveFitting=1;jiggle=2;" parent="1" source="SVPrrkfXlxwS3d5fpkM8-81" target="SVPrrkfXlxwS3d5fpkM8-79" edge="1">
          <mxGeometry x="0.95" relative="1" as="geometry">
            <mxPoint x="1940" y="950" as="sourcePoint" />
            <mxPoint x="1820" y="1030" as="targetPoint" />
            <mxPoint as="offset" />
            <Array as="points">
              <mxPoint x="1800" y="1000" />
            </Array>
          </mxGeometry>
        </mxCell>
        <mxCell id="SVPrrkfXlxwS3d5fpkM8-86" value="" style="endArrow=blockThin;html=1;endSize=12;startArrow=none;startSize=12;startFill=0;edgeStyle=orthogonalEdgeStyle;align=center;verticalAlign=middle;rounded=0;endFill=0;fontFamily=Source Code Pro;fontSize=8;labelBackgroundColor=none;fontStyle=1;sketch=1;curveFitting=1;jiggle=2;" parent="1" source="SVPrrkfXlxwS3d5fpkM8-83" target="SVPrrkfXlxwS3d5fpkM8-79" edge="1">
          <mxGeometry x="0.95" relative="1" as="geometry">
            <mxPoint x="1770" y="930" as="sourcePoint" />
            <mxPoint x="1690" y="1010" as="targetPoint" />
            <mxPoint as="offset" />
            <Array as="points">
              <mxPoint x="1800" y="1000" />
            </Array>
          </mxGeometry>
        </mxCell>
        <mxCell id="SVPrrkfXlxwS3d5fpkM8-87" value="" style="endArrow=blockThin;html=1;endSize=12;startArrow=none;startSize=12;startFill=0;edgeStyle=orthogonalEdgeStyle;align=center;verticalAlign=middle;rounded=0;endFill=0;fontFamily=Source Code Pro;fontSize=8;labelBackgroundColor=none;fontStyle=1;sketch=1;curveFitting=1;jiggle=2;" parent="1" source="SVPrrkfXlxwS3d5fpkM8-82" target="SVPrrkfXlxwS3d5fpkM8-79" edge="1">
          <mxGeometry x="0.95" relative="1" as="geometry">
            <mxPoint x="1780" y="940" as="sourcePoint" />
            <mxPoint x="1700" y="1020" as="targetPoint" />
            <mxPoint as="offset" />
            <Array as="points">
              <mxPoint x="2040" y="1000" />
            </Array>
          </mxGeometry>
        </mxCell>
        <mxCell id="SVPrrkfXlxwS3d5fpkM8-88" value="" style="endArrow=blockThin;html=1;endSize=12;startArrow=none;startSize=12;startFill=0;edgeStyle=orthogonalEdgeStyle;align=center;verticalAlign=middle;rounded=0;endFill=0;fontFamily=Source Code Pro;fontSize=8;labelBackgroundColor=none;fontStyle=1;sketch=1;curveFitting=1;jiggle=2;" parent="1" source="SVPrrkfXlxwS3d5fpkM8-84" target="SVPrrkfXlxwS3d5fpkM8-79" edge="1">
          <mxGeometry x="0.95" relative="1" as="geometry">
            <mxPoint x="2050" y="930" as="sourcePoint" />
            <mxPoint x="1690" y="1010" as="targetPoint" />
            <mxPoint as="offset" />
            <Array as="points">
              <mxPoint x="2040" y="1000" />
            </Array>
          </mxGeometry>
        </mxCell>
        <mxCell id="SVPrrkfXlxwS3d5fpkM8-89" value="save level" style="ellipse;whiteSpace=wrap;fillColor=#d5e8d4;fontFamily=Source Code Pro;html=1;strokeColor=#82b366;sketch=1;curveFitting=1;jiggle=2;" parent="1" vertex="1">
          <mxGeometry x="1520" y="1320" width="160" height="80" as="geometry" />
        </mxCell>
        <mxCell id="SVPrrkfXlxwS3d5fpkM8-90" value="discard level" style="ellipse;whiteSpace=wrap;fillColor=#d5e8d4;fontFamily=Source Code Pro;html=1;strokeColor=#82b366;sketch=1;curveFitting=1;jiggle=2;" parent="1" vertex="1">
          <mxGeometry x="1520" y="1160" width="160" height="80" as="geometry" />
        </mxCell>
        <mxCell id="SVPrrkfXlxwS3d5fpkM8-91" value="choose name" style="ellipse;whiteSpace=wrap;fillColor=#fff2cc;fontFamily=Source Code Pro;html=1;strokeColor=#d6b656;sketch=1;curveFitting=1;jiggle=2;" parent="1" vertex="1">
          <mxGeometry x="1800" y="1320" width="160" height="80" as="geometry" />
        </mxCell>
        <mxCell id="SVPrrkfXlxwS3d5fpkM8-92" value="" style="endArrow=none;html=1;endSize=12;startArrow=openThin;startSize=12;startFill=0;edgeStyle=orthogonalEdgeStyle;align=center;verticalAlign=middle;rounded=0;endFill=0;fontFamily=Source Code Pro;fontSize=8;labelBackgroundColor=none;fontStyle=1;dashed=1;flowAnimation=0;sketch=1;curveFitting=1;jiggle=2;" parent="1" source="SVPrrkfXlxwS3d5fpkM8-91" target="SVPrrkfXlxwS3d5fpkM8-89" edge="1">
          <mxGeometry x="0.95" relative="1" as="geometry">
            <mxPoint x="1690" y="1210" as="sourcePoint" />
            <mxPoint x="1810" y="1290" as="targetPoint" />
            <mxPoint as="offset" />
            <Array as="points">
              <mxPoint x="1640" y="1360" />
              <mxPoint x="1640" y="1360" />
            </Array>
          </mxGeometry>
        </mxCell>
        <mxCell id="SVPrrkfXlxwS3d5fpkM8-93" value="&amp;lt;&amp;lt;include&amp;gt;&amp;gt;" style="text;html=1;align=center;verticalAlign=middle;whiteSpace=wrap;rounded=0;fontSize=8;fontStyle=1;fontFamily=Source Code Pro;fillColor=default;sketch=1;curveFitting=1;jiggle=2;" parent="1" vertex="1">
          <mxGeometry x="1710" y="1350" width="60" height="20" as="geometry" />
        </mxCell>
        <mxCell id="SVPrrkfXlxwS3d5fpkM8-98" value="" style="endArrow=none;html=1;endSize=12;startArrow=openThin;startSize=12;startFill=0;edgeStyle=orthogonalEdgeStyle;align=center;verticalAlign=middle;rounded=0;endFill=0;fontFamily=Source Code Pro;fontSize=8;labelBackgroundColor=none;fontStyle=1;dashed=1;flowAnimation=0;sketch=1;curveFitting=1;jiggle=2;" parent="1" source="SVPrrkfXlxwS3d5fpkM8-60" target="SVPrrkfXlxwS3d5fpkM8-56" edge="1">
          <mxGeometry x="0.95" relative="1" as="geometry">
            <mxPoint x="1640.03" y="530" as="sourcePoint" />
            <mxPoint x="1760.03" y="610" as="targetPoint" />
            <mxPoint as="offset" />
            <Array as="points">
              <mxPoint x="1610" y="480" />
              <mxPoint x="1610" y="480" />
            </Array>
          </mxGeometry>
        </mxCell>
        <mxCell id="SVPrrkfXlxwS3d5fpkM8-99" value="&amp;lt;&amp;lt;extend&amp;gt;&amp;gt;" style="text;html=1;align=center;verticalAlign=middle;whiteSpace=wrap;rounded=0;fontSize=8;fontStyle=1;fontFamily=Source Code Pro;fillColor=default;sketch=1;curveFitting=1;jiggle=2;" parent="1" vertex="1">
          <mxGeometry x="1630" y="470" width="60" height="20" as="geometry" />
        </mxCell>
        <mxCell id="SVPrrkfXlxwS3d5fpkM8-101" value="" style="endArrow=none;html=1;endSize=12;startArrow=openThin;startSize=12;startFill=0;edgeStyle=orthogonalEdgeStyle;align=center;verticalAlign=middle;rounded=0;endFill=0;fontFamily=Source Code Pro;fontSize=8;labelBackgroundColor=none;fontStyle=1;dashed=1;flowAnimation=0;sketch=1;curveFitting=1;jiggle=2;" parent="1" source="SVPrrkfXlxwS3d5fpkM8-79" target="SVPrrkfXlxwS3d5fpkM8-77" edge="1">
          <mxGeometry x="0.95" relative="1" as="geometry">
            <mxPoint x="1350" y="820" as="sourcePoint" />
            <mxPoint x="1470" y="900" as="targetPoint" />
            <mxPoint as="offset" />
            <Array as="points">
              <mxPoint x="1310" y="990" />
              <mxPoint x="1310" y="990" />
            </Array>
          </mxGeometry>
        </mxCell>
        <mxCell id="SVPrrkfXlxwS3d5fpkM8-104" value="" style="endArrow=none;html=1;endSize=12;startArrow=openThin;startSize=12;startFill=0;edgeStyle=orthogonalEdgeStyle;align=center;verticalAlign=middle;rounded=0;endFill=0;fontFamily=Source Code Pro;fontSize=8;labelBackgroundColor=none;fontStyle=1;dashed=1;flowAnimation=0;sketch=1;curveFitting=1;jiggle=2;" parent="1" source="SVPrrkfXlxwS3d5fpkM8-80" target="SVPrrkfXlxwS3d5fpkM8-77" edge="1">
          <mxGeometry x="0.95" relative="1" as="geometry">
            <mxPoint x="1390" y="1060" as="sourcePoint" />
            <mxPoint x="1510" y="1140" as="targetPoint" />
            <mxPoint as="offset" />
            <Array as="points">
              <mxPoint x="1320" y="800" />
            </Array>
          </mxGeometry>
        </mxCell>
        <mxCell id="SVPrrkfXlxwS3d5fpkM8-105" value="" style="endArrow=none;html=1;endSize=12;startArrow=openThin;startSize=12;startFill=0;edgeStyle=orthogonalEdgeStyle;align=center;verticalAlign=middle;rounded=0;endFill=0;fontFamily=Source Code Pro;fontSize=8;labelBackgroundColor=none;fontStyle=1;dashed=1;flowAnimation=0;sketch=1;curveFitting=1;jiggle=2;" parent="1" source="SVPrrkfXlxwS3d5fpkM8-89" target="SVPrrkfXlxwS3d5fpkM8-77" edge="1">
          <mxGeometry x="0.95" relative="1" as="geometry">
            <mxPoint x="1510" y="1400" as="sourcePoint" />
            <mxPoint x="1430" y="1220" as="targetPoint" />
            <mxPoint as="offset" />
            <Array as="points">
              <mxPoint x="1320" y="1360" />
            </Array>
          </mxGeometry>
        </mxCell>
        <mxCell id="SVPrrkfXlxwS3d5fpkM8-106" value="" style="endArrow=none;html=1;endSize=12;startArrow=openThin;startSize=12;startFill=0;edgeStyle=orthogonalEdgeStyle;align=center;verticalAlign=middle;rounded=0;endFill=0;fontFamily=Source Code Pro;fontSize=8;labelBackgroundColor=none;fontStyle=1;dashed=1;flowAnimation=0;sketch=1;curveFitting=1;jiggle=2;" parent="1" source="SVPrrkfXlxwS3d5fpkM8-90" target="SVPrrkfXlxwS3d5fpkM8-77" edge="1">
          <mxGeometry x="0.95" relative="1" as="geometry">
            <mxPoint x="1160" y="1020" as="sourcePoint" />
            <mxPoint x="1280" y="1100" as="targetPoint" />
            <mxPoint as="offset" />
            <Array as="points">
              <mxPoint x="1320" y="1200" />
            </Array>
          </mxGeometry>
        </mxCell>
        <mxCell id="SVPrrkfXlxwS3d5fpkM8-107" value="&amp;lt;&amp;lt;extend&amp;gt;&amp;gt;" style="text;html=1;align=center;verticalAlign=middle;whiteSpace=wrap;rounded=0;fontSize=8;fontStyle=1;fontFamily=Source Code Pro;fillColor=default;sketch=1;curveFitting=1;jiggle=2;" parent="1" vertex="1">
          <mxGeometry x="1430" y="990" width="60" height="20" as="geometry" />
        </mxCell>
        <mxCell id="SVPrrkfXlxwS3d5fpkM8-108" value="&amp;lt;&amp;lt;extend&amp;gt;&amp;gt;" style="text;html=1;align=center;verticalAlign=middle;whiteSpace=wrap;rounded=0;fontSize=8;fontStyle=1;fontFamily=Source Code Pro;fillColor=default;sketch=1;curveFitting=1;jiggle=2;" parent="1" vertex="1">
          <mxGeometry x="1390" y="790" width="60" height="20" as="geometry" />
        </mxCell>
        <mxCell id="SVPrrkfXlxwS3d5fpkM8-109" value="&amp;lt;&amp;lt;extend&amp;gt;&amp;gt;" style="text;html=1;align=center;verticalAlign=middle;whiteSpace=wrap;rounded=0;fontSize=8;fontStyle=1;fontFamily=Source Code Pro;fillColor=default;sketch=1;curveFitting=1;jiggle=2;" parent="1" vertex="1">
          <mxGeometry x="1390" y="1190" width="60" height="20" as="geometry" />
        </mxCell>
        <mxCell id="SVPrrkfXlxwS3d5fpkM8-110" value="&amp;lt;&amp;lt;extend&amp;gt;&amp;gt;" style="text;html=1;align=center;verticalAlign=middle;whiteSpace=wrap;rounded=0;fontSize=8;fontStyle=1;fontFamily=Source Code Pro;fillColor=default;sketch=1;curveFitting=1;jiggle=2;" parent="1" vertex="1">
          <mxGeometry x="1390" y="1350" width="60" height="20" as="geometry" />
        </mxCell>
        <mxCell id="SVPrrkfXlxwS3d5fpkM8-112" value="" style="endArrow=none;html=1;endSize=12;startArrow=none;startSize=12;startFill=0;edgeStyle=orthogonalEdgeStyle;align=center;verticalAlign=middle;rounded=0;endFill=0;fontFamily=Source Code Pro;fontSize=8;labelBackgroundColor=none;fontStyle=1;sketch=1;curveFitting=1;jiggle=2;" parent="1" source="SVPrrkfXlxwS3d5fpkM8-77" target="SVPrrkfXlxwS3d5fpkM8-55" edge="1">
          <mxGeometry x="0.95" relative="1" as="geometry">
            <mxPoint x="1140" y="900" as="sourcePoint" />
            <mxPoint x="1020" y="900" as="targetPoint" />
            <mxPoint as="offset" />
            <Array as="points">
              <mxPoint x="1080" y="1000" />
              <mxPoint x="1080" y="800" />
            </Array>
          </mxGeometry>
        </mxCell>
        <mxCell id="SVPrrkfXlxwS3d5fpkM8-113" value="" style="endArrow=none;html=1;endSize=12;startArrow=none;startSize=12;startFill=0;edgeStyle=orthogonalEdgeStyle;align=center;verticalAlign=middle;rounded=0;endFill=0;fontFamily=Source Code Pro;fontSize=8;labelBackgroundColor=none;fontStyle=1;sketch=1;curveFitting=1;jiggle=2;" parent="1" source="SVPrrkfXlxwS3d5fpkM8-59" target="SVPrrkfXlxwS3d5fpkM8-55" edge="1">
          <mxGeometry x="0.95" relative="1" as="geometry">
            <mxPoint x="1120" y="1110" as="sourcePoint" />
            <mxPoint x="1000" y="1110" as="targetPoint" />
            <mxPoint as="offset" />
            <Array as="points">
              <mxPoint x="1080" y="600" />
              <mxPoint x="1080" y="800" />
            </Array>
          </mxGeometry>
        </mxCell>
        <mxCell id="SVPrrkfXlxwS3d5fpkM8-114" value="" style="endArrow=none;html=1;endSize=12;startArrow=none;startSize=12;startFill=0;edgeStyle=orthogonalEdgeStyle;align=center;verticalAlign=middle;rounded=0;endFill=0;fontFamily=Source Code Pro;fontSize=8;labelBackgroundColor=none;fontStyle=1;sketch=1;curveFitting=1;jiggle=2;" parent="1" source="SVPrrkfXlxwS3d5fpkM8-57" target="SVPrrkfXlxwS3d5fpkM8-55" edge="1">
          <mxGeometry x="0.95" relative="1" as="geometry">
            <mxPoint x="1140" y="510" as="sourcePoint" />
            <mxPoint x="1020" y="510" as="targetPoint" />
            <mxPoint as="offset" />
            <Array as="points">
              <mxPoint x="1080" y="360" />
              <mxPoint x="1080" y="800" />
            </Array>
          </mxGeometry>
        </mxCell>
        <mxCell id="SVPrrkfXlxwS3d5fpkM8-115" value="user" style="text;html=1;align=center;verticalAlign=middle;whiteSpace=wrap;rounded=0;fontSize=8;fontStyle=1;fontFamily=Source Code Pro;fillColor=default;sketch=1;curveFitting=1;jiggle=2;" parent="1" vertex="1">
          <mxGeometry x="960" y="840" width="40" height="20" as="geometry" />
        </mxCell>
      </root>
    </mxGraphModel>
  </diagram>
</mxfile>
